<svg width="1687" height="1009" xmlns="http://www.w3.org/2000/svg" xmlns:xlink="http://www.w3.org/1999/xlink" xml:space="preserve" overflow="hidden"><defs><filter id="fx0" x="-10%" y="-10%" width="120%" height="120%" filterUnits="userSpaceOnUse" primitiveUnits="userSpaceOnUse"><feComponentTransfer color-interpolation-filters="sRGB"><feFuncR type="discrete" tableValues="0 0"/><feFuncG type="discrete" tableValues="0 0"/><feFuncB type="discrete" tableValues="0 0"/><feFuncA type="linear" slope="0.109804" intercept="0"/></feComponentTransfer><feGaussianBlur stdDeviation="6.11111 6.11111"/></filter><clipPath id="clip1"><rect x="1755" y="423" width="1687" height="1009"/></clipPath></defs><g clip-path="url(#clip1)" transform="translate(-1755 -423)"><g filter="url(#fx0)" transform="translate(1753 422)"><g><rect x="20.4082" y="19.5033" width="1650" height="972" fill="#FFFFFF"/></g></g><rect x="1760" y="429" width="1650" height="972" fill="#FFFFFF"/><g><path d="M1959.5 1096.54 3359.5 1096.54M1959.5 1028.53 3359.5 1028.53M1959.5 959.532 3359.5 959.532M1959.5 891.529 3359.5 891.529M1959.5 822.527 3359.5 822.527M1959.5 754.525 3359.5 754.525M1959.5 686.523 3359.5 686.523M1959.5 617.52 3359.5 617.52M1959.5 549.518 3359.5 549.518M1959.5 480.5 3359.5 480.5" stroke="#D9D9D9" stroke-width="3.4375" stroke-linejoin="round" stroke-miterlimit="10" fill="none"/></g><g><path d="M1959.5 1165.5 3359.5 1165.5" stroke="#D9D9D9" stroke-width="3.4375" stroke-linejoin="round" stroke-miterlimit="10" fill="none" fill-rule="evenodd"/></g><g><path d="M2134 1162 2484.08 1158.04 2834.09 1136.04 3185 989" stroke="#156082" stroke-width="10.3125" stroke-linecap="round" stroke-linejoin="round" stroke-miterlimit="10" fill="none"/></g><g><path d="M2145.5 1162.5C2145.5 1168.57 2140.57 1173.5 2134.5 1173.5 2128.42 1173.5 2123.5 1168.57 2123.5 1162.5 2123.5 1156.42 2128.42 1151.5 2134.5 1151.5 2140.57 1151.5 2145.5 1156.42 2145.5 1162.5Z" stroke="#156082" stroke-width="3.4375" stroke-linejoin="round" stroke-miterlimit="10" fill="#156082"/><path d="M2495.5 1157.5C2495.5 1163.57 2490.57 1168.5 2484.5 1168.5 2478.42 1168.5 2473.5 1163.57 2473.5 1157.5 2473.5 1151.42 2478.42 1146.5 2484.5 1146.5 2490.57 1146.5 2495.5 1151.42 2495.5 1157.5Z" stroke="#156082" stroke-width="3.4375" stroke-linejoin="round" stroke-miterlimit="10" fill="#156082"/><path d="M2845.5 1135.5C2845.5 1141.57 2840.57 1146.5 2834.5 1146.5 2828.42 1146.5 2823.5 1141.57 2823.5 1135.5 2823.5 1129.42 2828.42 1124.5 2834.5 1124.5 2840.57 1124.5 2845.5 1129.42 2845.5 1135.5Z" stroke="#156082" stroke-width="3.4375" stroke-linejoin="round" stroke-miterlimit="10" fill="#156082"/><path d="M3195.5 989.5C3195.5 995.575 3190.57 1000.5 3184.5 1000.5 3178.42 1000.5 3173.5 995.575 3173.5 989.5 3173.5 983.425 3178.42 978.5 3184.5 978.5 3190.57 978.5 3195.5 983.425 3195.5 989.5Z" stroke="#156082" stroke-width="3.4375" stroke-linejoin="round" stroke-miterlimit="10" fill="#156082"/></g><g><path d="M2134 1159 2484.08 1150.04 2834.09 1107.04 3185 838" stroke="#E97132" stroke-width="10.3125" stroke-linecap="round" stroke-linejoin="round" stroke-miterlimit="10" fill="none"/></g><g><path d="M2145.5 1159.5C2145.5 1165.57 2140.57 1170.5 2134.5 1170.5 2128.42 1170.5 2123.5 1165.57 2123.5 1159.5 2123.5 1153.42 2128.42 1148.5 2134.5 1148.5 2140.57 1148.5 2145.5 1153.42 2145.5 1159.5Z" stroke="#E97132" stroke-width="3.4375" stroke-linejoin="round" stroke-miterlimit="10" fill="#E97132"/><path d="M2495.5 1150.5C2495.5 1156.57 2490.57 1161.5 2484.5 1161.5 2478.42 1161.5 2473.5 1156.57 2473.5 1150.5 2473.5 1144.42 2478.42 1139.5 2484.5 1139.5 2490.57 1139.5 2495.5 1144.42 2495.5 1150.5Z" stroke="#E97132" stroke-width="3.4375" stroke-linejoin="round" stroke-miterlimit="10" fill="#E97132"/><path d="M2845.5 1107.5C2845.5 1113.57 2840.57 1118.5 2834.5 1118.5 2828.42 1118.5 2823.5 1113.57 2823.5 1107.5 2823.5 1101.42 2828.42 1096.5 2834.5 1096.5 2840.57 1096.5 2845.5 1101.42 2845.5 1107.5Z" stroke="#E97132" stroke-width="3.4375" stroke-linejoin="round" stroke-miterlimit="10" fill="#E97132"/><path d="M3195.5 837.5C3195.5 843.574 3190.57 848.499 3184.5 848.499 3178.42 848.499 3173.5 843.574 3173.5 837.5 3173.5 831.425 3178.42 826.5 3184.5 826.5 3190.57 826.5 3195.5 831.425 3195.5 837.5Z" stroke="#E97132" stroke-width="3.4375" stroke-linejoin="round" stroke-miterlimit="10" fill="#E97132"/></g><g><path d="M2134 1157 2484.08 1143.04 2834.09 1082.04 3185 693" stroke="#196B24" stroke-width="10.3125" stroke-linecap="round" stroke-linejoin="round" stroke-miterlimit="10" fill="none"/></g><g><path d="M2145.5 1156.5C2145.5 1162.57 2140.57 1167.5 2134.5 1167.5 2128.42 1167.5 2123.5 1162.57 2123.5 1156.5 2123.5 1150.42 2128.42 1145.5 2134.5 1145.5 2140.57 1145.5 2145.5 1150.42 2145.5 1156.5Z" stroke="#196B24" stroke-width="3.4375" stroke-linejoin="round" stroke-miterlimit="10" fill="#196B24"/><path d="M2495.5 1143.5C2495.5 1149.57 2490.57 1154.5 2484.5 1154.5 2478.42 1154.5 2473.5 1149.57 2473.5 1143.5 2473.5 1137.42 2478.42 1132.5 2484.5 1132.5 2490.57 1132.5 2495.5 1137.42 2495.5 1143.5Z" stroke="#196B24" stroke-width="3.4375" stroke-linejoin="round" stroke-miterlimit="10" fill="#196B24"/><path d="M2845.5 1081.5C2845.5 1087.57 2840.57 1092.5 2834.5 1092.5 2828.42 1092.5 2823.5 1087.57 2823.5 1081.5 2823.5 1075.42 2828.42 1070.5 2834.5 1070.5 2840.57 1070.5 2845.5 1075.42 2845.5 1081.5Z" stroke="#196B24" stroke-width="3.4375" stroke-linejoin="round" stroke-miterlimit="10" fill="#196B24"/><path d="M3195.5 692.5C3195.5 698.575 3190.57 703.499 3184.5 703.499 3178.42 703.499 3173.5 698.575 3173.5 692.5 3173.5 686.425 3178.42 681.5 3184.5 681.5 3190.57 681.5 3195.5 686.425 3195.5 692.5Z" stroke="#196B24" stroke-width="3.4375" stroke-linejoin="round" stroke-miterlimit="10" fill="#196B24"/></g><g><path d="M2134 1154 2484.08 1137.04 2834.09 1052.03 3185 554" stroke="#0F9ED5" stroke-width="10.3125" stroke-linecap="round" stroke-linejoin="round" stroke-miterlimit="10" fill="none"/></g><g><path d="M2145.5 1154.5C2145.5 1160.57 2140.57 1165.5 2134.5 1165.5 2128.42 1165.5 2123.5 1160.57 2123.5 1154.5 2123.5 1148.42 2128.42 1143.5 2134.5 1143.5 2140.57 1143.5 2145.5 1148.42 2145.5 1154.5Z" stroke="#0F9ED5" stroke-width="3.4375" stroke-linejoin="round" stroke-miterlimit="10" fill="#0F9ED5"/><path d="M2495.5 1137.5C2495.5 1143.57 2490.57 1148.5 2484.5 1148.5 2478.42 1148.5 2473.5 1143.57 2473.5 1137.5 2473.5 1131.42 2478.42 1126.5 2484.5 1126.5 2490.57 1126.5 2495.5 1131.42 2495.5 1137.5Z" stroke="#0F9ED5" stroke-width="3.4375" stroke-linejoin="round" stroke-miterlimit="10" fill="#0F9ED5"/><path d="M2845.5 1051.5C2845.5 1057.57 2840.57 1062.5 2834.5 1062.5 2828.42 1062.5 2823.5 1057.57 2823.5 1051.5 2823.5 1045.42 2828.42 1040.5 2834.5 1040.5 2840.57 1040.5 2845.5 1045.42 2845.5 1051.5Z" stroke="#0F9ED5" stroke-width="3.4375" stroke-linejoin="round" stroke-miterlimit="10" fill="#0F9ED5"/><path d="M3195.5 554.5C3195.5 560.575 3190.57 565.499 3184.5 565.499 3178.42 565.499 3173.5 560.575 3173.5 554.5 3173.5 548.425 3178.42 543.5 3184.5 543.5 3190.57 543.5 3195.5 548.425 3195.5 554.5Z" stroke="#0F9ED5" stroke-width="3.4375" stroke-linejoin="round" stroke-miterlimit="10" fill="#0F9ED5"/></g><g><text fill="#595959" font-family="Linux Libertine,Linux Libertine_MSFontService,sans-serif" font-weight="400" font-size="41" transform="matrix(1 0 0 1 1904.31 1177)">0</text></g><g><text fill="#595959" font-family="Linux Libertine,Linux Libertine_MSFontService,sans-serif" font-weight="400" font-size="41" transform="matrix(1 0 0 1 1865.94 1109)">500</text></g><g><text fill="#595959" font-family="Linux Libertine,Linux Libertine_MSFontService,sans-serif" font-weight="400" font-size="41" transform="matrix(1 0 0 1 1846.72 1040)">1000</text></g><g><text fill="#595959" font-family="Linux Libertine,Linux Libertine_MSFontService,sans-serif" font-weight="400" font-size="41" transform="matrix(1 0 0 1 1846.72 972)">1500</text></g><g><text fill="#595959" font-family="Linux Libertine,Linux Libertine_MSFontService,sans-serif" font-weight="400" font-size="41" transform="matrix(1 0 0 1 1846.74 903)">2000</text></g><g><text fill="#595959" font-family="Linux Libertine,Linux Libertine_MSFontService,sans-serif" font-weight="400" font-size="41" transform="matrix(1 0 0 1 1846.74 835)">2500</text></g><g><text fill="#595959" font-family="Linux Libertine,Linux Libertine_MSFontService,sans-serif" font-weight="400" font-size="41" transform="matrix(1 0 0 1 1846.56 767)">3000</text></g><g><text fill="#595959" font-family="Linux Libertine,Linux Libertine_MSFontService,sans-serif" font-weight="400" font-size="41" transform="matrix(1 0 0 1 1846.56 698)">3500</text></g><g><text fill="#595959" font-family="Linux Libertine,Linux Libertine_MSFontService,sans-serif" font-weight="400" font-size="41" transform="matrix(1 0 0 1 1846.67 630)">4000</text></g><g><text fill="#595959" font-family="Linux Libertine,Linux Libertine_MSFontService,sans-serif" font-weight="400" font-size="41" transform="matrix(1 0 0 1 1846.67 561)">4500</text></g><g><text fill="#595959" font-family="Linux Libertine,Linux Libertine_MSFontService,sans-serif" font-weight="400" font-size="41" transform="matrix(1 0 0 1 1846.76 493)">5000</text></g><g><text fill="#595959" font-family="Linux Libertine,Linux Libertine_MSFontService,sans-serif" font-weight="400" font-size="41" transform="matrix(1 0 0 1 2081.81 1227)">10.000</text></g><g><text fill="#595959" font-family="Linux Libertine,Linux Libertine_MSFontService,sans-serif" font-weight="400" font-size="41" transform="matrix(1 0 0 1 2422.3 1227)">100.000</text></g><g><text fill="#595959" font-family="Linux Libertine,Linux Libertine_MSFontService,sans-serif" font-weight="400" font-size="41" transform="matrix(1 0 0 1 2758.24 1227)">1.000.000</text></g><g><text fill="#595959" font-family="Linux Libertine,Linux Libertine_MSFontService,sans-serif" font-weight="400" font-size="41" transform="matrix(1 0 0 1 3098.72 1227)">10.000.000</text></g><g><text fill="#595959" font-family="Linux Libertine,Linux Libertine_MSFontService,sans-serif" font-weight="700" font-size="46" transform="matrix(6.12323e-17 -1 1 6.12323e-17 1821.67 962)">milisegundos</text></g><g><text fill="#595959" font-family="Linux Libertine,Linux Libertine_MSFontService,sans-serif" font-style="italic" font-weight="700" font-size="46" transform="matrix(1 0 0 1 2645.37 1291)">n</text></g><g><path d="M1960 1337 2048 1337" stroke="#156082" stroke-width="10.3125" stroke-linecap="round" stroke-linejoin="round" stroke-miterlimit="10" fill="none" fill-rule="evenodd"/></g><g><path d="M2015 1336C2015 1342.07 2010.07 1347 2004 1347 1997.92 1347 1993 1342.07 1993 1336 1993 1329.92 1997.92 1325 2004 1325 2010.07 1325 2015 1329.92 2015 1336Z" stroke="#156082" stroke-width="3.4375" stroke-linejoin="round" stroke-miterlimit="10" fill="#156082"/></g><g><text fill="#595959" font-family="Linux Libertine,Linux Libertine_MSFontService,sans-serif" font-weight="400" font-size="41" transform="matrix(1 0 0 1 2057.41 1349)">Solución 1</text></g><g><path d="M2291 1337 2379 1337" stroke="#E97132" stroke-width="10.3125" stroke-linecap="round" stroke-linejoin="round" stroke-miterlimit="10" fill="none" fill-rule="evenodd"/></g><g><path d="M2346 1336C2346 1342.07 2341.07 1347 2335 1347 2328.93 1347 2324 1342.07 2324 1336 2324 1329.92 2328.93 1325 2335 1325 2341.07 1325 2346 1329.92 2346 1336Z" stroke="#E97132" stroke-width="3.4375" stroke-linejoin="round" stroke-miterlimit="10" fill="#E97132"/></g><g><text fill="#595959" font-family="Linux Libertine,Linux Libertine_MSFontService,sans-serif" font-weight="400" font-size="41" transform="matrix(1 0 0 1 2388.43 1349)">Solución 2</text></g><g><path d="M2622 1337 2710 1337" stroke="#196B24" stroke-width="10.3125" stroke-linecap="round" stroke-linejoin="round" stroke-miterlimit="10" fill="none" fill-rule="evenodd"/></g><g><path d="M2677 1336C2677 1342.07 2672.07 1347 2666 1347 2659.93 1347 2655 1342.07 2655 1336 2655 1329.92 2659.93 1325 2666 1325 2672.07 1325 2677 1329.92 2677 1336Z" stroke="#196B24" stroke-width="3.4375" stroke-linejoin="round" stroke-miterlimit="10" fill="#196B24"/></g><g><text fill="#595959" font-family="Linux Libertine,Linux Libertine_MSFontService,sans-serif" font-weight="400" font-size="41" transform="matrix(1 0 0 1 2719.44 1349)">Solución 3</text></g><g><path d="M2953 1337 3041 1337" stroke="#0F9ED5" stroke-width="10.3125" stroke-linecap="round" stroke-linejoin="round" stroke-miterlimit="10" fill="none" fill-rule="evenodd"/></g><g><path d="M3008 1336C3008 1342.07 3003.07 1347 2997 1347 2990.93 1347 2986 1342.07 2986 1336 2986 1329.92 2990.93 1325 2997 1325 3003.07 1325 3008 1329.92 3008 1336Z" stroke="#0F9ED5" stroke-width="3.4375" stroke-linejoin="round" stroke-miterlimit="10" fill="#0F9ED5"/></g><g><text fill="#595959" font-family="Linux Libertine,Linux Libertine_MSFontService,sans-serif" font-weight="400" font-size="41" transform="matrix(1 0 0 1 3050.62 1349)">Solución 4</text></g></g></svg>