<svg width="907" height="897" xmlns="http://www.w3.org/2000/svg" xmlns:xlink="http://www.w3.org/1999/xlink" overflow="hidden"><defs><clipPath id="clip0"><rect x="3301" y="1380" width="907" height="897"/></clipPath></defs><g clip-path="url(#clip0)" transform="translate(-3301 -1380)"><path d="M3410.27 1479.52 3542.36 1479.52 3542.36 1611.52 3410.27 1611.52Z" fill="#FFD966" fill-rule="evenodd"/><path d="M3542.36 1479.52 3674.44 1479.52 3674.44 1611.52 3542.36 1611.52Z" fill="#FFD966" fill-rule="evenodd"/><path d="M3674.44 1479.52 3806.53 1479.52 3806.53 1611.52 3674.44 1611.52Z" fill="#FFD966" fill-rule="evenodd"/><path d="M3806.53 1479.52 3938.62 1479.52 3938.62 1611.52 3806.53 1611.52Z" fill="#FFD966" fill-rule="evenodd"/><path d="M3938.62 1479.52 4070.7 1479.52 4070.7 1611.52 3938.62 1611.52Z" fill="#FFD966" fill-rule="evenodd"/><path d="M4070.7 1479.52 4202.79 1479.52 4202.79 1611.52 4070.7 1611.52Z" fill="#FFE699" fill-rule="evenodd"/><path d="M3410.27 1611.52 3542.36 1611.52 3542.36 1743.52 3410.27 1743.52Z" fill="#FFD966" fill-rule="evenodd"/><path d="M3542.36 1611.52 3674.44 1611.52 3674.44 1743.52 3542.36 1743.52Z" fill="#FFD966" fill-rule="evenodd"/><path d="M3674.44 1611.52 3806.53 1611.52 3806.53 1743.52 3674.44 1743.52Z" fill="#FFD966" fill-rule="evenodd"/><path d="M3806.53 1611.52 3938.62 1611.52 3938.62 1743.52 3806.53 1743.52Z" fill="#FFD966" fill-rule="evenodd"/><path d="M3938.62 1611.52 4070.7 1611.52 4070.7 1743.52 3938.62 1743.52Z" fill="#FFE699" fill-rule="evenodd"/><path d="M4070.7 1611.52 4202.79 1611.52 4202.79 1743.52 4070.7 1743.52Z" fill="#FFE699" fill-rule="evenodd"/><path d="M3410.27 1743.52 3542.36 1743.52 3542.36 1875.52 3410.27 1875.52Z" fill="#FFD966" fill-rule="evenodd"/><path d="M3542.36 1743.52 3674.44 1743.52 3674.44 1875.52 3542.36 1875.52Z" fill="#FFD966" fill-rule="evenodd"/><path d="M3674.44 1743.52 3806.53 1743.52 3806.53 1875.52 3674.44 1875.52Z" fill="#FFD966" fill-rule="evenodd"/><path d="M3806.53 1743.52 3938.62 1743.52 3938.62 1875.52 3806.53 1875.52Z" fill="#FFE699" fill-rule="evenodd"/><path d="M3938.62 1743.52 4070.7 1743.52 4070.7 1875.52 3938.62 1875.52Z" fill="#FFE699" fill-rule="evenodd"/><path d="M4070.7 1743.52 4202.79 1743.52 4202.79 1875.52 4070.7 1875.52Z" fill="#595959" fill-rule="evenodd"/><path d="M3410.27 1875.52 3542.36 1875.52 3542.36 2007.52 3410.27 2007.52Z" fill="#FFD966" fill-rule="evenodd"/><path d="M3542.36 1875.52 3674.44 1875.52 3674.44 2007.52 3542.36 2007.52Z" fill="#FFD966" fill-rule="evenodd"/><path d="M3674.44 1875.52 3806.53 1875.52 3806.53 2007.52 3674.44 2007.52Z" fill="#FFE699" fill-rule="evenodd"/><path d="M3806.53 1875.52 3938.62 1875.52 3938.62 2007.52 3806.53 2007.52Z" fill="#FFE699" fill-rule="evenodd"/><path d="M3938.62 1875.52 4070.7 1875.52 4070.7 2007.52 3938.62 2007.52Z" fill="#595959" fill-rule="evenodd"/><path d="M4070.7 1875.52 4202.79 1875.52 4202.79 2007.52 4070.7 2007.52Z" fill="#595959" fill-rule="evenodd"/><path d="M3410.27 2007.52 3542.36 2007.52 3542.36 2139.52 3410.27 2139.52Z" fill="#FFD966" fill-rule="evenodd"/><path d="M3542.36 2007.52 3674.44 2007.52 3674.44 2139.52 3542.36 2139.52Z" fill="#FFE699" fill-rule="evenodd"/><path d="M3674.44 2007.52 3806.53 2007.52 3806.53 2139.52 3674.44 2139.52Z" fill="#FFE699" fill-rule="evenodd"/><path d="M3806.53 2007.52 3938.62 2007.52 3938.62 2139.52 3806.53 2139.52Z" fill="#595959" fill-rule="evenodd"/><path d="M3938.62 2007.52 4070.7 2007.52 4070.7 2139.52 3938.62 2139.52Z" fill="#595959" fill-rule="evenodd"/><path d="M4070.7 2007.52 4202.79 2007.52 4202.79 2139.52 4070.7 2139.52Z" fill="#595959" fill-rule="evenodd"/><path d="M3410.27 2139.52 3542.36 2139.52 3542.36 2271.52 3410.27 2271.52Z" fill="#FFE699" fill-rule="evenodd"/><path d="M3542.36 2139.52 3674.44 2139.52 3674.44 2271.52 3542.36 2271.52Z" fill="#FFE699" fill-rule="evenodd"/><path d="M3674.44 2139.52 3806.53 2139.52 3806.53 2271.52 3674.44 2271.52Z" fill="#595959" fill-rule="evenodd"/><path d="M3806.53 2139.52 3938.62 2139.52 3938.62 2271.52 3806.53 2271.52Z" fill="#595959" fill-rule="evenodd"/><path d="M3938.62 2139.52 4070.7 2139.52 4070.7 2271.52 3938.62 2271.52Z" fill="#595959" fill-rule="evenodd"/><path d="M4070.7 2139.52 4202.79 2139.52 4202.79 2271.52 4070.7 2271.52Z" fill="#595959" fill-rule="evenodd"/><path d="M3542.36 1477.22 3542.36 2273.81" stroke="#7F7F7F" stroke-width="4.58333" stroke-linejoin="round" stroke-miterlimit="10" fill="none" fill-rule="evenodd"/><path d="M3674.44 1477.22 3674.44 2273.81" stroke="#7F7F7F" stroke-width="4.58333" stroke-linejoin="round" stroke-miterlimit="10" fill="none" fill-rule="evenodd"/><path d="M3806.53 1477.22 3806.53 2273.81" stroke="#7F7F7F" stroke-width="4.58333" stroke-linejoin="round" stroke-miterlimit="10" fill="none" fill-rule="evenodd"/><path d="M3938.62 1477.22 3938.62 1877.81" stroke="#7F7F7F" stroke-width="4.58333" stroke-linejoin="round" stroke-miterlimit="10" fill="none" fill-rule="evenodd"/><path d="M3938.62 2005.22 3938.62 2273.81" stroke="#7F7F7F" stroke-width="4.58333" stroke-linejoin="round" stroke-miterlimit="10" fill="none" fill-rule="evenodd"/><path d="M4070.7 1477.22 4070.7 1745.81" stroke="#7F7F7F" stroke-width="4.58333" stroke-linejoin="round" stroke-miterlimit="10" fill="none" fill-rule="evenodd"/><path d="M4070.7 1873.22 4070.7 2273.81" stroke="#7F7F7F" stroke-width="4.58333" stroke-linejoin="round" stroke-miterlimit="10" fill="none" fill-rule="evenodd"/><path d="M3407.98 1611.52 4205.08 1611.52" stroke="#7F7F7F" stroke-width="4.58333" stroke-linejoin="round" stroke-miterlimit="10" fill="none" fill-rule="evenodd"/><path d="M3407.98 1743.52 4205.08 1743.52" stroke="#7F7F7F" stroke-width="4.58333" stroke-linejoin="round" stroke-miterlimit="10" fill="none" fill-rule="evenodd"/><path d="M3407.98 1875.52 4205.08 1875.52" stroke="#7F7F7F" stroke-width="4.58333" stroke-linejoin="round" stroke-miterlimit="10" fill="none" fill-rule="evenodd"/><path d="M3407.98 2007.52 4205.08 2007.52" stroke="#7F7F7F" stroke-width="4.58333" stroke-linejoin="round" stroke-miterlimit="10" fill="none" fill-rule="evenodd"/><path d="M3407.98 2139.52 4205.08 2139.52" stroke="#7F7F7F" stroke-width="4.58333" stroke-linejoin="round" stroke-miterlimit="10" fill="none" fill-rule="evenodd"/><path d="M3410.27 1477.22 3410.27 2273.81" stroke="#000000" stroke-width="4.58333" stroke-linejoin="round" stroke-miterlimit="10" fill="none" fill-rule="evenodd"/><path d="M4202.79 1477.22 4202.79 2273.81" stroke="#000000" stroke-width="4.58333" stroke-linejoin="round" stroke-miterlimit="10" fill="none" fill-rule="evenodd"/><path d="M3407.98 1479.52 4205.08 1479.52" stroke="#000000" stroke-width="4.58333" stroke-linejoin="round" stroke-miterlimit="10" fill="none" fill-rule="evenodd"/><path d="M3407.98 2271.52 4205.08 2271.52" stroke="#000000" stroke-width="4.58333" stroke-linejoin="round" stroke-miterlimit="10" fill="none" fill-rule="evenodd"/><text font-family="Titillium Web,Titillium Web_MSFontService,sans-serif" font-style="italic" font-weight="700" font-size="55" transform="matrix(-1.83697e-16 -1 1 -1.83697e-16 3367.78 1923)">6 px</text><text font-family="Titillium Web,Titillium Web_MSFontService,sans-serif" font-style="italic" font-weight="700" font-size="55" transform="matrix(1 0 0 1 3758.69 1446)">6 px</text><path d="M3410.27 1479.51 3542.36 1479.51 3542.36 1611.51 3410.27 1611.51Z" fill="#FFD966" fill-rule="evenodd"/><path d="M3542.36 1479.51 3674.44 1479.51 3674.44 1611.51 3542.36 1611.51Z" fill="#FFD966" fill-rule="evenodd"/><path d="M3674.44 1479.51 3806.53 1479.51 3806.53 1611.51 3674.44 1611.51Z" fill="#FFD966" fill-rule="evenodd"/><path d="M3806.53 1479.51 3938.62 1479.51 3938.62 1611.51 3806.53 1611.51Z" fill="#FFD966" fill-rule="evenodd"/><path d="M3938.62 1479.51 4070.7 1479.51 4070.7 1611.51 3938.62 1611.51Z" fill="#FFD966" fill-rule="evenodd"/><path d="M4070.7 1479.51 4202.79 1479.51 4202.79 1611.51 4070.7 1611.51Z" fill="#FFE699" fill-rule="evenodd"/><path d="M3410.27 1611.51 3542.36 1611.51 3542.36 1743.51 3410.27 1743.51Z" fill="#FFD966" fill-rule="evenodd"/><path d="M3542.36 1611.51 3674.44 1611.51 3674.44 1743.51 3542.36 1743.51Z" fill="#FFD966" fill-rule="evenodd"/><path d="M3674.44 1611.51 3806.53 1611.51 3806.53 1743.51 3674.44 1743.51Z" fill="#FFD966" fill-rule="evenodd"/><path d="M3806.53 1611.51 3938.62 1611.51 3938.62 1743.51 3806.53 1743.51Z" fill="#FFD966" fill-rule="evenodd"/><path d="M3938.62 1611.51 4070.7 1611.51 4070.7 1743.51 3938.62 1743.51Z" fill="#FFE699" fill-rule="evenodd"/><path d="M4070.7 1611.51 4202.79 1611.51 4202.79 1743.51 4070.7 1743.51Z" fill="#FFE699" fill-rule="evenodd"/><path d="M3410.27 1743.51 3542.36 1743.51 3542.36 1875.51 3410.27 1875.51Z" fill="#FFD966" fill-rule="evenodd"/><path d="M3542.36 1743.51 3674.44 1743.51 3674.44 1875.51 3542.36 1875.51Z" fill="#FFD966" fill-rule="evenodd"/><path d="M3674.44 1743.51 3806.53 1743.51 3806.53 1875.51 3674.44 1875.51Z" fill="#FFD966" fill-rule="evenodd"/><path d="M3806.53 1743.51 3938.62 1743.51 3938.62 1875.51 3806.53 1875.51Z" fill="#FFE699" fill-rule="evenodd"/><path d="M3938.62 1743.51 4070.7 1743.51 4070.7 1875.51 3938.62 1875.51Z" fill="#FFE699" fill-rule="evenodd"/><path d="M4070.7 1743.51 4202.79 1743.51 4202.79 1875.51 4070.7 1875.51Z" fill="#595959" fill-rule="evenodd"/><path d="M3410.27 1875.51 3542.36 1875.51 3542.36 2007.51 3410.27 2007.51Z" fill="#FFD966" fill-rule="evenodd"/><path d="M3542.36 1875.51 3674.44 1875.51 3674.44 2007.51 3542.36 2007.51Z" fill="#FFD966" fill-rule="evenodd"/><path d="M3674.44 1875.51 3806.53 1875.51 3806.53 2007.51 3674.44 2007.51Z" fill="#FFE699" fill-rule="evenodd"/><path d="M3806.53 1875.51 3938.62 1875.51 3938.62 2007.51 3806.53 2007.51Z" fill="#FFE699" fill-rule="evenodd"/><path d="M3938.62 1875.51 4070.7 1875.51 4070.7 2007.51 3938.62 2007.51Z" fill="#595959" fill-rule="evenodd"/><path d="M4070.7 1875.51 4202.79 1875.51 4202.79 2007.51 4070.7 2007.51Z" fill="#595959" fill-rule="evenodd"/><path d="M3410.27 2007.51 3542.36 2007.51 3542.36 2139.51 3410.27 2139.51Z" fill="#FFD966" fill-rule="evenodd"/><path d="M3542.36 2007.51 3674.44 2007.51 3674.44 2139.51 3542.36 2139.51Z" fill="#FFE699" fill-rule="evenodd"/><path d="M3674.44 2007.51 3806.53 2007.51 3806.53 2139.51 3674.44 2139.51Z" fill="#FFE699" fill-rule="evenodd"/><path d="M3806.53 2007.51 3938.62 2007.51 3938.62 2139.51 3806.53 2139.51Z" fill="#595959" fill-rule="evenodd"/><path d="M3938.62 2007.51 4070.7 2007.51 4070.7 2139.51 3938.62 2139.51Z" fill="#595959" fill-rule="evenodd"/><path d="M4070.7 2007.51 4202.79 2007.51 4202.79 2139.51 4070.7 2139.51Z" fill="#595959" fill-rule="evenodd"/><path d="M3410.27 2139.51 3542.36 2139.51 3542.36 2271.51 3410.27 2271.51Z" fill="#FFE699" fill-rule="evenodd"/><path d="M3542.36 2139.51 3674.44 2139.51 3674.44 2271.51 3542.36 2271.51Z" fill="#FFE699" fill-rule="evenodd"/><path d="M3674.44 2139.51 3806.53 2139.51 3806.53 2271.51 3674.44 2271.51Z" fill="#595959" fill-rule="evenodd"/><path d="M3806.53 2139.51 3938.62 2139.51 3938.62 2271.51 3806.53 2271.51Z" fill="#595959" fill-rule="evenodd"/><path d="M3938.62 2139.51 4070.7 2139.51 4070.7 2271.51 3938.62 2271.51Z" fill="#595959" fill-rule="evenodd"/><path d="M4070.7 2139.51 4202.79 2139.51 4202.79 2271.51 4070.7 2271.51Z" fill="#595959" fill-rule="evenodd"/><path d="M3542.36 1477.22 3542.36 2273.81" stroke="#7F7F7F" stroke-width="4.58333" stroke-linejoin="round" stroke-miterlimit="10" fill="none" fill-rule="evenodd"/><path d="M3674.44 1477.22 3674.44 2273.81" stroke="#7F7F7F" stroke-width="4.58333" stroke-linejoin="round" stroke-miterlimit="10" fill="none" fill-rule="evenodd"/><path d="M3806.53 1477.22 3806.53 2273.81" stroke="#7F7F7F" stroke-width="4.58333" stroke-linejoin="round" stroke-miterlimit="10" fill="none" fill-rule="evenodd"/><path d="M3938.62 1477.22 3938.62 1877.81" stroke="#7F7F7F" stroke-width="4.58333" stroke-linejoin="round" stroke-miterlimit="10" fill="none" fill-rule="evenodd"/><path d="M3938.62 2005.22 3938.62 2273.81" stroke="#7F7F7F" stroke-width="4.58333" stroke-linejoin="round" stroke-miterlimit="10" fill="none" fill-rule="evenodd"/><path d="M4070.7 1477.22 4070.7 2273.81" stroke="#7F7F7F" stroke-width="4.58333" stroke-linejoin="round" stroke-miterlimit="10" fill="none" fill-rule="evenodd"/><path d="M3407.98 1611.51 4205.08 1611.51" stroke="#7F7F7F" stroke-width="4.58333" stroke-linejoin="round" stroke-miterlimit="10" fill="none" fill-rule="evenodd"/><path d="M3407.98 1743.51 4205.08 1743.51" stroke="#7F7F7F" stroke-width="4.58333" stroke-linejoin="round" stroke-miterlimit="10" fill="none" fill-rule="evenodd"/><path d="M3407.98 1875.51 4205.08 1875.51" stroke="#7F7F7F" stroke-width="4.58333" stroke-linejoin="round" stroke-miterlimit="10" fill="none" fill-rule="evenodd"/><path d="M3407.98 2007.51 4205.08 2007.51" stroke="#7F7F7F" stroke-width="4.58333" stroke-linejoin="round" stroke-miterlimit="10" fill="none" fill-rule="evenodd"/><path d="M3407.98 2139.51 4205.08 2139.51" stroke="#7F7F7F" stroke-width="4.58333" stroke-linejoin="round" stroke-miterlimit="10" fill="none" fill-rule="evenodd"/><path d="M3410.27 1477.22 3410.27 2273.81" stroke="#000000" stroke-width="4.58333" stroke-linejoin="round" stroke-miterlimit="10" fill="none" fill-rule="evenodd"/><path d="M4202.79 1477.22 4202.79 2273.81" stroke="#000000" stroke-width="4.58333" stroke-linejoin="round" stroke-miterlimit="10" fill="none" fill-rule="evenodd"/><path d="M3407.98 1479.51 4205.08 1479.51" stroke="#000000" stroke-width="4.58333" stroke-linejoin="round" stroke-miterlimit="10" fill="none" fill-rule="evenodd"/><path d="M3407.98 2271.51 4205.08 2271.51" stroke="#000000" stroke-width="4.58333" stroke-linejoin="round" stroke-miterlimit="10" fill="none" fill-rule="evenodd"/><text font-family="Titillium Web,Titillium Web_MSFontService,sans-serif" font-weight="400" font-size="48" transform="matrix(1 0 0 1 3443.94 1560)">0<tspan font-size="48" x="26.927" y="0">,0</tspan><tspan font-size="48" x="660.433" y="0">0</tspan><tspan font-size="48" x="687.36" y="0">,5</tspan><tspan font-size="48" x="132.087" y="132">1,1</tspan><tspan font-size="48" x="264.173" y="264">2,2</tspan><tspan font-size="48" x="396.26" y="396">3,3</tspan><tspan fill="#FFFFFF" font-size="48" x="528.346" y="528">4,4</tspan><tspan font-size="48" x="0" y="660">5</tspan><tspan font-size="48" x="26.927" y="660">,0</tspan><tspan fill="#FFFFFF" font-size="48" x="660.433" y="660">5</tspan><tspan fill="#FFFFFF" font-size="48" x="687.36" y="660">,5</tspan></text></g></svg>