<svg width="4089" height="1045" xmlns="http://www.w3.org/2000/svg" xmlns:xlink="http://www.w3.org/1999/xlink" xml:space="preserve" overflow="hidden"><g transform="translate(-191 -1093)"><text font-family="TX-02,TX-02_MSFontService,sans-serif" font-weight="700" font-size="73" transform="matrix(1 0 0 1 235.754 1707)">rectMode</text><text font-family="TX-02,TX-02_MSFontService,sans-serif" font-weight="400" font-size="73" transform="matrix(1 0 0 1 588.67 1707)">(CORNER)</text><text font-family="TX-02,TX-02_MSFontService,sans-serif" font-weight="700" font-size="73" transform="matrix(1 0 0 1 235.754 1795)">rect</text><text font-family="TX-02,TX-02_MSFontService,sans-serif" font-weight="400" font-size="73" transform="matrix(1 0 0 1 412.212 1795)">(x,y,w,h)</text><rect x="243.5" y="1130.5" width="678" height="456" stroke="#1B587C" stroke-width="9.16667" stroke-miterlimit="8" fill="#D3E2ED"/><rect x="1165.5" y="1130.5" width="678" height="456" stroke="#1B587C" stroke-width="9.16667" stroke-miterlimit="8" fill="#D3E2ED"/><rect x="2332.5" y="1130.5" width="679" height="456" stroke="#1B587C" stroke-width="4.58333" stroke-miterlimit="8" stroke-dasharray="18.3333 13.75" fill="none"/><rect x="3259.5" y="1130.5" width="678" height="456" stroke="#1B587C" stroke-width="4.58333" stroke-miterlimit="8" stroke-dasharray="18.3333 13.75" fill="none"/><path d="M2332.5 1358.5C2332.5 1232.58 2484.5 1130.5 2672 1130.5 2859.5 1130.5 3011.5 1232.58 3011.5 1358.5 3011.5 1484.42 2859.5 1586.5 2672 1586.5 2484.5 1586.5 2332.5 1484.42 2332.5 1358.5Z" stroke="#1B587C" stroke-width="9.16667" stroke-miterlimit="8" fill="#D3E2ED" fill-rule="evenodd"/><path d="M3259.5 1358.5C3259.5 1232.58 3411.28 1130.5 3598.5 1130.5 3785.72 1130.5 3937.5 1232.58 3937.5 1358.5 3937.5 1484.42 3785.72 1586.5 3598.5 1586.5 3411.28 1586.5 3259.5 1484.42 3259.5 1358.5Z" stroke="#1B587C" stroke-width="9.16667" stroke-miterlimit="8" fill="#D3E2ED" fill-rule="evenodd"/><text font-family="TX-02,TX-02_MSFontService,sans-serif" font-weight="700" font-size="73" transform="matrix(1 0 0 1 1152.12 1707)">rectMode</text><text font-family="TX-02,TX-02_MSFontService,sans-serif" font-weight="400" font-size="73" transform="matrix(1 0 0 1 1505.04 1707)">(CENTER)</text><text font-family="TX-02,TX-02_MSFontService,sans-serif" font-weight="700" font-size="73" transform="matrix(1 0 0 1 1152.12 1795)">rect</text><text font-family="TX-02,TX-02_MSFontService,sans-serif" font-weight="400" font-size="73" transform="matrix(1 0 0 1 1328.58 1795)">(x,y,w,h)</text><text font-family="TX-02,TX-02_MSFontService,sans-serif" font-weight="700" font-size="73" transform="matrix(1 0 0 1 2328.63 1707)">ellipseMode</text><text font-family="TX-02,TX-02_MSFontService,sans-serif" font-weight="400" font-size="73" transform="matrix(1 0 0 1 2813.89 1707)">(CORNER)</text><text font-family="TX-02,TX-02_MSFontService,sans-serif" font-weight="700" font-size="73" transform="matrix(1 0 0 1 2328.63 1795)">ellipse</text><text font-family="TX-02,TX-02_MSFontService,sans-serif" font-weight="400" font-size="73" transform="matrix(1 0 0 1 2637.43 1795)">(x,y,w,h)</text><text font-family="TX-02,TX-02_MSFontService,sans-serif" font-weight="700" font-size="73" transform="matrix(1 0 0 1 3258.75 1707)">ellipseMode</text><text font-family="TX-02,TX-02_MSFontService,sans-serif" font-weight="400" font-size="73" transform="matrix(1 0 0 1 3744.01 1707)">(CENTER)</text><text font-family="TX-02,TX-02_MSFontService,sans-serif" font-weight="700" font-size="73" transform="matrix(1 0 0 1 3258.75 1795)">ellipse</text><text font-family="TX-02,TX-02_MSFontService,sans-serif" font-weight="400" font-size="73" transform="matrix(1 0 0 1 3567.55 1795)">(x,y,w,h)</text><path d="M210 1125.5C210 1107.55 224.551 1093 242.5 1093 260.449 1093 275 1107.55 275 1125.5 275 1143.45 260.449 1158 242.5 1158 224.551 1158 210 1143.45 210 1125.5Z" fill="#1B587C" fill-rule="evenodd"/><path d="M1484 1358.5C1484 1340.55 1498.55 1326 1516.5 1326 1534.45 1326 1549 1340.55 1549 1358.5 1549 1376.45 1534.45 1391 1516.5 1391 1498.55 1391 1484 1376.45 1484 1358.5Z" fill="#1B587C" fill-rule="evenodd"/><path d="M2300 1130.5C2300 1112.55 2314.55 1098 2332.5 1098 2350.45 1098 2365 1112.55 2365 1130.5 2365 1148.45 2350.45 1163 2332.5 1163 2314.55 1163 2300 1148.45 2300 1130.5Z" fill="#1B587C" fill-rule="evenodd"/><path d="M3566 1357.5C3566 1339.55 3580.55 1325 3598.5 1325 3616.45 1325 3631 1339.55 3631 1357.5 3631 1375.45 3616.45 1390 3598.5 1390 3580.55 1390 3566 1375.45 3566 1357.5Z" fill="#1B587C" fill-rule="evenodd"/><path d="M4.01042-1.17571e-05 4.01071 100.186-4.01012 100.186-4.01042 1.17571e-05ZM13.7503 95.6029 0.000360892 123.103-13.7497 95.603Z" fill="#FF0000" transform="matrix(1 0 0 -1 582 1988.1)"/><path d="M4.01042-1.17571e-05 4.01071 100.186-4.01012 100.186-4.01042 1.17571e-05ZM13.7503 95.6029 0.000360892 123.103-13.7497 95.603Z" fill="#FF0000" transform="matrix(1 0 0 -1 3614 1988.1)"/><text fill="#FF0000" font-family="Titillium Web,Titillium Web_MSFontService,sans-serif" font-weight="700" font-size="73" transform="matrix(1 0 0 1 283.594 2071)">Opción por defecto</text><text fill="#FF0000" font-family="Titillium Web,Titillium Web_MSFontService,sans-serif" font-weight="700" font-size="73" transform="matrix(1 0 0 1 3315.83 2071)">Opción por defecto</text><path d="M218 1595.41 254.503 1574.83 254.503 1585.31 915.306 1585.31 915.306 1154.5 904.826 1154.5 925.412 1118 946 1154.5 935.52 1154.5 935.52 1605.52 254.503 1605.52 254.503 1616Z" fill="#1B587C" fill-rule="evenodd"/><path d="M1139 1592.41 1175.5 1571.83 1175.5 1582.31 1836.31 1582.31 1836.31 1151.5 1825.83 1151.5 1846.41 1115 1867 1151.5 1856.52 1151.5 1856.52 1602.52 1175.5 1602.52 1175.5 1613Z" fill="#1B587C" fill-rule="evenodd"/><path d="M2313 1596.45 2349.43 1575.91 2349.43 1586.37 3010.37 1586.37 3010.37 1156.43 2999.91 1156.43 3020.45 1120 3041 1156.43 3030.54 1156.43 3030.54 1606.54 2349.43 1606.54 2349.43 1617Z" fill="#1B587C" fill-rule="evenodd"/><path d="M3240 1596.45 3276.43 1575.91 3276.43 1586.37 3937.37 1586.37 3937.37 1156.43 3926.91 1156.43 3947.45 1120 3968 1156.43 3957.54 1156.43 3957.54 1606.54 3276.43 1606.54 3276.43 1617Z" fill="#1B587C" fill-rule="evenodd"/></g></svg>