<svg width="1687" height="902" xmlns="http://www.w3.org/2000/svg" xmlns:xlink="http://www.w3.org/1999/xlink" xml:space="preserve" overflow="hidden"><defs><filter id="fx0" x="-10%" y="-10%" width="120%" height="120%" filterUnits="userSpaceOnUse" primitiveUnits="userSpaceOnUse"><feComponentTransfer color-interpolation-filters="sRGB"><feFuncR type="discrete" tableValues="0 0"/><feFuncG type="discrete" tableValues="0 0"/><feFuncB type="discrete" tableValues="0 0"/><feFuncA type="linear" slope="0.109804" intercept="0"/></feComponentTransfer><feGaussianBlur stdDeviation="6.11111 6.11111"/></filter><clipPath id="clip1"><rect x="2481" y="596" width="1687" height="902"/></clipPath></defs><g clip-path="url(#clip1)" transform="translate(-2481 -596)"><g filter="url(#fx0)" transform="translate(2479 595)"><g><rect x="20.4082" y="19.5032" width="1650" height="865" fill="#FFFFFF"/></g></g><rect x="2486" y="602" width="1650" height="865" fill="#FFFFFF"/><g><path d="M2685.5 1170.54 4085.5 1170.54M2685.5 1083.54 4085.5 1083.54M2685.5 996.533 4085.5 996.533M2685.5 909.53 4085.5 909.53M2685.5 822.527 4085.5 822.527M2685.5 735.524 4085.5 735.524M2685.5 648.5 4085.5 648.5" stroke="#D9D9D9" stroke-width="3.4375" stroke-linejoin="round" stroke-miterlimit="10" fill="none"/></g><g><path d="M2685.5 1257.5 4085.5 1257.5" stroke="#D9D9D9" stroke-width="3.4375" stroke-linejoin="round" stroke-miterlimit="10" fill="none" fill-rule="evenodd"/></g><g><path d="M2860 1257 3210.11 1257.04 3560.12 1252.04 3911 777" stroke="#156082" stroke-width="10.3125" stroke-linecap="round" stroke-linejoin="round" stroke-miterlimit="10" fill="none"/></g><g><path d="M2871.5 1257.75C2871.5 1263.82 2866.57 1268.75 2860.5 1268.75 2854.42 1268.75 2849.5 1263.82 2849.5 1257.75 2849.5 1251.67 2854.42 1246.75 2860.5 1246.75 2866.57 1246.75 2871.5 1251.67 2871.5 1257.75Z" stroke="#156082" stroke-width="3.4375" stroke-linejoin="round" stroke-miterlimit="10" fill="#156082"/><path d="M3221.5 1256.75C3221.5 1262.82 3216.57 1267.75 3210.5 1267.75 3204.42 1267.75 3199.5 1262.82 3199.5 1256.75 3199.5 1250.67 3204.42 1245.75 3210.5 1245.75 3216.57 1245.75 3221.5 1250.67 3221.5 1256.75Z" stroke="#156082" stroke-width="3.4375" stroke-linejoin="round" stroke-miterlimit="10" fill="#156082"/><path d="M3571.5 1251.75C3571.5 1257.82 3566.57 1262.75 3560.5 1262.75 3554.42 1262.75 3549.5 1257.82 3549.5 1251.75 3549.5 1245.67 3554.42 1240.75 3560.5 1240.75 3566.57 1240.75 3571.5 1245.67 3571.5 1251.75Z" stroke="#156082" stroke-width="3.4375" stroke-linejoin="round" stroke-miterlimit="10" fill="#156082"/><path d="M3921.5 777.75C3921.5 783.825 3916.57 788.749 3910.5 788.749 3904.42 788.749 3899.5 783.825 3899.5 777.75 3899.5 771.675 3904.42 766.75 3910.5 766.75 3916.57 766.75 3921.5 771.675 3921.5 777.75Z" stroke="#156082" stroke-width="3.4375" stroke-linejoin="round" stroke-miterlimit="10" fill="#156082"/></g><g><path d="M2860 1257 3210.11 1257.04 3560.12 1248.04 3911 729" stroke="#E97132" stroke-width="10.3125" stroke-linecap="round" stroke-linejoin="round" stroke-miterlimit="10" fill="none"/></g><g><path d="M2871.5 1257.75C2871.5 1263.82 2866.57 1268.75 2860.5 1268.75 2854.42 1268.75 2849.5 1263.82 2849.5 1257.75 2849.5 1251.67 2854.42 1246.75 2860.5 1246.75 2866.57 1246.75 2871.5 1251.67 2871.5 1257.75Z" stroke="#E97132" stroke-width="3.4375" stroke-linejoin="round" stroke-miterlimit="10" fill="#E97132"/><path d="M3221.5 1256.75C3221.5 1262.82 3216.57 1267.75 3210.5 1267.75 3204.42 1267.75 3199.5 1262.82 3199.5 1256.75 3199.5 1250.67 3204.42 1245.75 3210.5 1245.75 3216.57 1245.75 3221.5 1250.67 3221.5 1256.75Z" stroke="#E97132" stroke-width="3.4375" stroke-linejoin="round" stroke-miterlimit="10" fill="#E97132"/><path d="M3571.5 1248.75C3571.5 1254.82 3566.57 1259.75 3560.5 1259.75 3554.42 1259.75 3549.5 1254.82 3549.5 1248.75 3549.5 1242.67 3554.42 1237.75 3560.5 1237.75 3566.57 1237.75 3571.5 1242.67 3571.5 1248.75Z" stroke="#E97132" stroke-width="3.4375" stroke-linejoin="round" stroke-miterlimit="10" fill="#E97132"/><path d="M3921.5 729.75C3921.5 735.825 3916.57 740.749 3910.5 740.749 3904.42 740.749 3899.5 735.825 3899.5 729.75 3899.5 723.675 3904.42 718.75 3910.5 718.75 3916.57 718.75 3921.5 723.675 3921.5 729.75Z" stroke="#E97132" stroke-width="3.4375" stroke-linejoin="round" stroke-miterlimit="10" fill="#E97132"/></g><g><text fill="#595959" font-family="Linux Libertine,Linux Libertine_MSFontService,sans-serif" font-weight="400" font-size="41" transform="matrix(1 0 0 1 2630.31 1269)">0</text></g><g><text fill="#595959" font-family="Linux Libertine,Linux Libertine_MSFontService,sans-serif" font-weight="400" font-size="41" transform="matrix(1 0 0 1 2572.74 1182)">2000</text></g><g><text fill="#595959" font-family="Linux Libertine,Linux Libertine_MSFontService,sans-serif" font-weight="400" font-size="41" transform="matrix(1 0 0 1 2572.67 1095)">4000</text></g><g><text fill="#595959" font-family="Linux Libertine,Linux Libertine_MSFontService,sans-serif" font-weight="400" font-size="41" transform="matrix(1 0 0 1 2572.69 1008)">6000</text></g><g><text fill="#595959" font-family="Linux Libertine,Linux Libertine_MSFontService,sans-serif" font-weight="400" font-size="41" transform="matrix(1 0 0 1 2572.76 921)">8000</text></g><g><text fill="#595959" font-family="Linux Libertine,Linux Libertine_MSFontService,sans-serif" font-weight="400" font-size="41" transform="matrix(1 0 0 1 2553.54 834)">10000</text></g><g><text fill="#595959" font-family="Linux Libertine,Linux Libertine_MSFontService,sans-serif" font-weight="400" font-size="41" transform="matrix(1 0 0 1 2553.51 747)">12000</text></g><g><text fill="#595959" font-family="Linux Libertine,Linux Libertine_MSFontService,sans-serif" font-weight="400" font-size="41" transform="matrix(1 0 0 1 2553.44 660)">14000</text></g><g><text fill="#595959" font-family="Linux Libertine,Linux Libertine_MSFontService,sans-serif" font-weight="400" font-size="41" transform="matrix(1 0 0 1 2831.53 1319)">100</text></g><g><text fill="#595959" font-family="Linux Libertine,Linux Libertine_MSFontService,sans-serif" font-weight="400" font-size="41" transform="matrix(1 0 0 1 3167.48 1319)">1.000</text></g><g><text fill="#595959" font-family="Linux Libertine,Linux Libertine_MSFontService,sans-serif" font-weight="400" font-size="41" transform="matrix(1 0 0 1 3507.96 1319)">10.000</text></g><g><text fill="#595959" font-family="Linux Libertine,Linux Libertine_MSFontService,sans-serif" font-weight="400" font-size="41" transform="matrix(1 0 0 1 3848.44 1319)">100.000</text></g><g><text fill="#595959" font-family="Linux Libertine,Linux Libertine_MSFontService,sans-serif" font-weight="700" font-size="46" transform="matrix(6.12323e-17 -1 1 6.12323e-17 2533.87 1092)">milisegundos</text></g><g><text fill="#595959" font-family="Linux Libertine,Linux Libertine_MSFontService,sans-serif" font-style="italic" font-weight="700" font-size="46" transform="matrix(1 0 0 1 3371.37 1342)">n</text></g><g><path d="M3053 1403 3141 1403" stroke="#156082" stroke-width="10.3125" stroke-linecap="round" stroke-linejoin="round" stroke-miterlimit="10" fill="none" fill-rule="evenodd"/></g><g><path d="M3107 1402C3107 1408.07 3102.07 1413 3096 1413 3089.93 1413 3085 1408.07 3085 1402 3085 1395.92 3089.93 1391 3096 1391 3102.07 1391 3107 1395.92 3107 1402Z" stroke="#156082" stroke-width="3.4375" stroke-linejoin="round" stroke-miterlimit="10" fill="#156082"/></g><g><text fill="#595959" font-family="Linux Libertine,Linux Libertine_MSFontService,sans-serif" font-weight="400" font-size="41" transform="matrix(1 0 0 1 3149.93 1415)">Burbuja</text></g><g><path d="M3330 1403 3418 1403" stroke="#E97132" stroke-width="10.3125" stroke-linecap="round" stroke-linejoin="round" stroke-miterlimit="10" fill="none" fill-rule="evenodd"/></g><g><path d="M3385 1402C3385 1408.07 3380.07 1413 3374 1413 3367.93 1413 3363 1408.07 3363 1402 3363 1395.92 3367.93 1391 3374 1391 3380.07 1391 3385 1395.92 3385 1402Z" stroke="#E97132" stroke-width="3.4375" stroke-linejoin="round" stroke-miterlimit="10" fill="#E97132"/></g><g><text fill="#595959" font-family="Linux Libertine,Linux Libertine_MSFontService,sans-serif" font-weight="400" font-size="41" transform="matrix(1 0 0 1 3427.77 1415)">Selección</text></g></g></svg>